 <svg xmlns="http://www.w3.org/2000/svg" fill="white" stroke="black" viewBox="0 0 198.11 242.51"><defs><style>.cls-1{stroke-miterlimit:10;stroke-width:2px;}</style></defs><title>brain-stem</title><g id="Layer_2" data-name="Layer 2"><g id="Layer_2-2" data-name="Layer 2"><path class="cls-1" d="M1.14,39c1.11,3.32,7.64,1.49,14,6.24,5.7,4.23,7.64,11,9,15.62,2.44,8.46.11,10.6,2.75,17.69.64,1.71,2.38,5.9,9,13a97.43,97.43,0,0,0,20,16.11c11.14,7.14,19.87,20.74,37.34,47.95,8.16,12.71,13.92,23.27,17.29,29.48,7.46,13.72,11.18,20.59,14.15,27.82,6.37,15.56,5.69,20.13,11.4,24.45,7.51,5.68,17.36,4.32,25.94,3.14,10-1.38,27.39-3.77,33.41-14.93s-6.14-19.19-22-61.31c-8.86-23.52-10.66-35.95-22.8-42.05-7.49-3.77-9.76-.52-23.19-3.93-6.06-1.54-22.74-6-36.94-20.83-3.86-4-15.87-17.52-18.86-37.34-1.2-7.92.56-6.8-.79-13.76C68.11,31.75,59.46,22.12,47,8.19,41.39,2,40.11,1.36,38.71,1.11,31.27-.21,28.11,10.18,8.05,29,4.27,32.56.19,36.14,1.14,39Z"/></g></g></svg>