  <svg xmlns="http://www.w3.org/2000/svg" fill="#ffc446;" stroke="black" viewBox="0 0 172.75 162.7"><defs><style>.cls-1{stroke-miterlimit:10;stroke-width:2px;}</style></defs><title>occipital-lobe</title><g id="Layer_2" data-name="Layer 2"><g id="Layer_2-2" data-name="Layer 2"><path class="cls-1" d="M28.08,150.3c7.67-2,12.21,1.73,21.13,4.23,20.93,5.86,26-6.07,53.52-4.23,20.17,1.35,23.56,8.16,35.21,4.23,12.82-4.33,19.57-16.23,23.94-23.94,9.56-16.84,9.73-33,9.86-45.07a121,121,0,0,0-7-42.25C160.84,32.67,150.78.61,137.94,1c-5.69.17-11.33,6.67-12.68,12.68-1.67,7.45,4.07,10.52,4.23,18.31.13,6.41-3.64,9.38-21.13,28.17C88.12,81.91,89.29,82.11,83,86.92c-8.35,6.39-12.33,7.5-16.9,14.08-6.33,9.11-4.26,15-8.45,21.13-6.29,9.23-17.31,1.73-38,9.86-8.06,3.16-16.6,6.65-18.31,14.08-1.44,6.25,2.18,14.33,7,15.49C14.3,163,17.55,153,28.08,150.3Z"/></g></g></svg>