 <svg xmlns="http://www.w3.org/2000/svg" fill="#e497a4" stroke="black" viewBox="0 0 257.5 215.34"><defs><style>.cls-1{stroke-miterlimit:10;stroke-width:2px;}</style></defs><title>parietal-lobe</title><g id="Layer_2" data-name="Layer 2"><g id="Layer_2-2" data-name="Layer 2"><path class="cls-1" d="M32.14,3c3.32-4.53,11.53-.24,33.8,1.41C81.54,5.58,85,4,94.12,7.24c7.68,2.71,8.41,4.94,16.9,8.45,10.63,4.39,16.22,3.67,26.76,5.63a119.7,119.7,0,0,1,40.85,16.9c9.49,6.35,7.31,7.28,25.35,22.54C219.67,74,221.62,73.57,232.14,83.3c13,12.06,27,24.92,23.94,35.21a12.91,12.91,0,0,1-.66,1.67c-3.92,8.79-10.77,9-13.42,13.82-3.89,7,6.89,13.83,4.23,23.94-1.24,4.7-4.09,5.44-14.08,14.08A265.16,265.16,0,0,0,208.2,196c-10.74,12.43-12.22,17.65-18.31,18.31s-7.11-4.24-16.9-7c-9.21-2.63-17.38-.89-28.17,1.41-14.05,3-14.68,6-22.54,5.63-10.5-.53-18-6.37-22.54-9.86-5.35-4.15-16-12.38-15.49-22.54.09-1.87,1.94-6,5.63-14.08,5.21-11.45,6.73-13.47,5.63-15.49-2.29-4.25-13.1-3.11-19.72-1.41-11.06,2.84-11.6,7.53-23.94,12.68-4.92,2-11.73,3.24-25.35,5.63-21.13,3.71-23,2.39-23.94,1.41-4.43-4.86,1.38-17.38,7-29.58,5.76-12.41,8.88-14.31,11.27-22.54,3.33-11.47.89-22.23,0-26.76-2.46-12.49-6-12.52-5.63-19.72C15.73,61.36,23.46,61,29.33,45.27a60.81,60.81,0,0,0,4.23-26.76C32.77,9,29.94,6,32.14,3Z"/></g></g></svg>