<svg xmlns="http://www.w3.org/2000/svg" fill="white" stroke="black" viewBox="0 0 287.49 189.89"><defs><style>.cls-1{stroke-miterlimit:10;stroke-width:2px;}</style></defs><title>temporal-lobe</title><g id="Layer_2" data-name="Layer 2"><g id="Layer_2-2" data-name="Layer 2"><path class="cls-1" d="M1.11,140c1-7.82,8.46-7.87,16.9-19.72,5.3-7.43,4.49-10.38,12.68-33.8C36.09,71,38.8,63.26,40.54,61.12,51.26,47.95,63.39,54.13,87,40c14-8.4,10.25-10.88,23.94-18.31C114,20,122.33,15.74,154.63,7.6,169,4,175-1.16,178.57,2c4.19,3.63-1.85,10.92,1.41,21.13,4,12.49,18.43,18.49,28.17,22.54,7.21,3,16.44,6.83,28.17,5.63,14.42-1.47,18.71-9.11,33.8-8.45,4.64.2,12.83.56,15.49,5.63,3.1,5.91-2.4,16.14-9.86,19.72-5.77,2.77-9.19-.12-16.9,0-16.57.26-34.76,14.13-36.62,28.17C221,105.45,227.58,108,225,114.64c-5,13.15-35.37,14-39.44,14.08-12.9.35-14.25-2.39-21.13,0-8.52,3-9.51,8.24-23.94,23.94A184.6,184.6,0,0,1,118,173.8c-9.73,7.54-15.42,12-23.94,14.08-8.91,2.22-15.92.57-29.58-2.82-17.22-4.27-33-8.2-47.89-21.13C9.48,157.73-.12,149.37,1.11,140Z"/></g></g></svg>